<svg width="430" height="430" viewBox="0 0 430 430" fill="none" xmlns="http://www.w3.org/2000/svg">
<path d="M3.5 373.068V373.07C3.5 382.847 9.36742 391.872 14.0708 396.789C17.4767 400.35 26.2945 408.709 34.9499 415.575C39.2607 418.994 43.6772 422.161 47.4397 424.164C49.2996 425.154 51.2105 425.976 52.9924 426.321C54.6843 426.65 57.1455 426.701 59.0259 424.893L59.034 424.885L59.0421 424.877C66.7733 417.347 71.4278 412.567 74.9431 408.888C75.8417 407.947 76.6592 407.086 77.4298 406.274C79.6874 403.895 81.5419 401.941 83.8504 399.669C89.9958 393.651 89.3444 384.813 88.3367 378.054C88.0836 376.356 87.8185 374.847 87.5689 373.426C87.2563 371.647 86.968 370.006 86.7579 368.306C86.3887 365.318 86.4955 363.532 86.917 362.549C88.4301 359.018 89.8136 357.326 91.1388 356.341C92.4956 355.332 94.1583 354.777 96.921 354.195C97.804 354.009 99.0685 353.995 100.793 354.195C102.491 354.392 104.396 354.765 106.505 355.208C106.943 355.3 107.392 355.395 107.848 355.493C111.612 356.295 115.949 357.22 119.856 357.27L119.858 357.27C124.573 357.327 128.365 356.346 131.852 354.462C135.222 352.64 138.182 350.034 141.28 347.136C146.41 342.416 150.972 337.25 151.099 329.035C151.163 326.018 150.137 323.019 149.073 320.429C148.615 319.312 148.106 318.174 147.618 317.084C147.526 316.879 147.436 316.676 147.346 316.475C146.767 315.176 146.224 313.936 145.759 312.712C144.813 310.229 144.308 308.12 144.415 306.262C144.512 304.554 145.137 302.846 146.949 301.071C148.615 299.438 150.339 298.928 152.312 299.009C154.475 299.099 156.964 299.91 159.889 301.171C161.092 301.69 162.296 302.251 163.548 302.835C163.796 302.951 164.046 303.067 164.298 303.184C165.795 303.88 167.358 304.595 168.916 305.213C171.956 306.418 175.436 307.451 178.905 307.046C185.245 306.308 191.65 301.742 196.376 297.106C198.813 294.716 200.969 292.145 202.624 289.725C204.222 287.387 205.555 284.897 206.023 282.7C206.332 281.249 206.172 279.781 205.892 278.511C205.605 277.21 205.133 275.857 204.593 274.532C203.733 272.419 202.571 270.064 201.433 267.761C201.163 267.214 200.894 266.669 200.631 266.132C199.214 263.234 197.916 260.442 197.083 257.881C196.233 255.27 196.026 253.359 196.309 252.062C196.313 252.05 196.325 252.007 196.354 251.933C196.391 251.839 196.446 251.713 196.526 251.555C196.687 251.237 196.919 250.844 197.226 250.391C197.841 249.485 198.68 248.454 199.647 247.46C201.726 245.321 203.795 243.962 205.044 243.69C205.042 243.69 205.044 243.69 205.049 243.69C205.1 243.686 205.461 243.655 206.295 243.753C207.135 243.852 208.198 244.047 209.46 244.327C211.986 244.888 215.018 245.724 218.169 246.594L218.23 246.611C221.311 247.461 224.505 248.343 227.222 248.946C228.592 249.25 229.913 249.501 231.088 249.639C232.176 249.767 233.476 249.844 234.642 249.59C238.169 248.832 241.685 246.694 244.685 244.649C246.065 243.707 247.31 242.808 248.483 241.96C249.585 241.164 250.622 240.415 251.648 239.72C266.96 246.09 281.148 248.67 299 248.67C369.302 248.67 426.5 193.831 426.5 125.97C426.5 58.1003 369.293 3.5 299 3.5C228.62 3.5 173.6 58.3848 173.6 126.17V126.464C173.6 138.595 173.6 151.005 177.262 162.796C176.015 164.26 174.714 165.787 173.363 167.374C151.087 193.528 115.11 235.768 82.605 273.692C65.0254 294.203 48.4661 313.445 35.6416 328.195C22.807 342.957 13.8735 353.03 11.3135 355.509C8.86412 357.719 6.90358 360.417 5.55794 363.43C4.20331 366.462 3.50213 369.746 3.5 373.068ZM355.5 103C355.5 108.637 353.828 114.147 350.697 118.834C347.565 123.521 343.114 127.173 337.906 129.331C332.699 131.488 326.968 132.052 321.44 130.952C315.911 129.853 310.833 127.138 306.847 123.153C302.862 119.167 300.147 114.089 299.048 108.56C297.948 103.032 298.512 97.3012 300.669 92.0935C302.827 86.8858 306.479 82.4347 311.166 79.3031C315.853 76.1715 321.363 74.5 327 74.5C334.559 74.5 341.808 77.5027 347.153 82.8475C352.497 88.1922 355.5 95.4413 355.5 103Z" fill="#44AB96" stroke="#F0F8FF" stroke-width="7"/>
</svg>
